<?xml version="1.0" encoding="UTF-8"?>
<svg version="1.1" xmlns="http://www.w3.org/2000/svg" width="1024" height="1024">
<path d="M0 0 C337.92 0 675.84 0 1024 0 C1024 337.92 1024 675.84 1024 1024 C686.08 1024 348.16 1024 0 1024 C0 686.08 0 348.16 0 0 Z " fill="#FEFEFE" transform="translate(0,0)"/>
<path d="M0 0 C1.53562991 -0.00374059 3.07125791 -0.00834374 4.60688293 -0.01373065 C8.81039862 -0.02592569 13.01383451 -0.02570431 17.21736383 -0.02334189 C21.75742465 -0.02293284 26.29746019 -0.03398142 30.83750916 -0.04345703 C39.72674875 -0.06004931 48.61596181 -0.06556579 57.5052156 -0.06668179 C64.73409079 -0.06763319 71.96295725 -0.07174812 79.19182968 -0.07808304 C99.70357393 -0.09569136 120.21529727 -0.10492266 140.72704913 -0.10342209 C142.38472893 -0.10330222 142.38472893 -0.10330222 144.07589722 -0.10317993 C145.73560993 -0.10305729 145.73560993 -0.10305729 147.42885219 -0.10293217 C165.3530938 -0.1021196 183.27725131 -0.121251 201.2014686 -0.14945666 C219.62216409 -0.17821396 238.0428186 -0.19199536 256.4635371 -0.19026911 C266.79878789 -0.18960615 277.13395054 -0.19505727 287.46918106 -0.21662521 C296.27034449 -0.23487456 305.07137982 -0.23915364 313.87255402 -0.22560637 C318.35850481 -0.21909537 322.84421012 -0.21889154 327.33013725 -0.23631287 C331.44605313 -0.25213204 335.5615307 -0.24909072 339.67743646 -0.2317446 C341.15723811 -0.22869401 342.6370732 -0.2322329 344.11683537 -0.24346475 C362.18346194 -0.37138679 377.84809101 4.03109315 391.10812378 16.82992554 C403.87870547 29.78812798 409.03508709 45.20455807 408.97164917 63.13803101 C408.9717952 64.2215535 408.97194122 65.30507599 408.97209167 66.4214325 C408.97139662 69.99251324 408.96362325 73.56354143 408.95578003 77.13461304 C408.9539144 79.61468477 408.95249118 82.09475687 408.95149231 84.5748291 C408.94767852 91.09482851 408.93785792 97.61480556 408.92678833 104.13479614 C408.91600783 110.79098082 408.91198945 117.44717201 408.9069519 124.10336304 C408.89623465 137.15806006 408.87936474 150.21274161 408.85812378 163.26742554 C410.29478394 163.24385986 410.29478394 163.24385986 411.76046753 163.21981812 C415.34615523 163.16512841 418.93180678 163.13093506 422.51779175 163.10263062 C424.06375345 163.08763224 425.60967325 163.06722667 427.15548706 163.04110718 C438.83328395 162.84886456 447.35829673 163.49493787 456.74874878 171.18539429 C463.08363485 177.43816146 467.54312739 186.48587672 468.02960205 195.41479492 C467.98610091 199.10729303 467.85361988 202.78875601 467.70187378 206.47836304 C467.63775649 209.2789235 467.59517606 212.07979134 467.54953003 214.88070679 C467.47257629 219.25204021 467.36901818 223.61739789 467.162323 227.98471069 C465.94779416 246.1454954 465.94779416 246.1454954 472.94406128 262.2605896 C476.82723768 266.39859287 481.06609069 269.93699761 485.56015015 273.38870239 C488.42576351 275.73150306 490.69624323 278.34916756 493.06430054 281.18035889 C496.56427573 285.25248893 500.45091063 288.96044225 504.26437378 292.73617554 C505.14790527 293.61592041 506.03143677 294.49566528 506.94174194 295.40206909 C509.74477511 298.1929706 512.55092294 300.98071785 515.35812378 303.76742554 C519.05912928 307.44141292 522.756442 311.11908156 526.45187378 314.79867554 C527.29061035 315.62911377 528.12934692 316.459552 528.99349976 317.31515503 C533.31610345 321.61985974 537.48142114 325.99419052 541.4515686 330.62715149 C542.5950322 331.96061761 543.77603247 333.26182661 544.96749878 334.55258179 C545.50890503 335.13910522 546.05031128 335.72562866 546.60812378 336.32992554 C547.15984253 336.9190271 547.71156128 337.50812866 548.27999878 338.11508179 C553.43529424 345.1461902 553.28557798 351.72533685 553.23907471 360.18362427 C553.24609466 362.14105903 553.24609466 362.14105903 553.25325644 364.13803792 C553.26575742 367.74956853 553.2596002 371.36086072 553.25029778 374.97239208 C553.24350363 378.87164598 553.25399052 382.77085919 553.26223755 386.67010498 C553.27557467 394.30566347 553.2726968 401.94113346 553.26399963 409.57669541 C553.25722143 415.78496588 553.25630696 421.99321157 553.25957108 428.20148468 C553.26003077 429.0854759 553.26049047 429.96946711 553.2609641 430.88024594 C553.2619233 432.67617216 553.26289594 434.47209838 553.26388188 436.26802459 C553.27243623 453.1084536 553.26260197 469.94883361 553.24648078 486.78925458 C553.23308686 501.2273153 553.23539796 515.66530363 553.24923706 530.10336304 C553.26530812 546.87778707 553.27160246 563.65216813 553.26240027 580.42659879 C553.26144465 582.2171003 553.26050154 584.00760181 553.25957108 585.79810333 C553.25910825 586.67900587 553.25864542 587.55990841 553.25816857 588.46750496 C553.25558257 594.66356598 553.25994147 600.85959965 553.26700974 607.05565643 C553.27544231 614.61375096 553.27310814 622.17175207 553.2571675 629.72983596 C553.24930693 633.58335665 553.24615504 637.43672185 553.25611496 641.29024124 C553.26676625 645.47472572 553.25401008 649.65882087 553.23907471 653.84329224 C553.24911295 655.65572328 553.24911295 655.65572328 553.259354 657.50476909 C553.1596972 671.92826833 549.03134272 684.63596073 539.01437378 695.23226929 C529.17276531 704.52117873 517.52297622 707.89278455 504.18848515 707.77358341 C503.072649 707.77969677 501.95681286 707.78581013 500.80716351 707.79210874 C497.08329624 707.80765867 493.36008488 707.79486217 489.63621521 707.78208923 C486.93335973 707.78741653 484.23054964 707.79432085 481.52770752 707.80313629 C475.65900173 707.81908165 469.79043941 707.82023382 463.9217205 707.8115387 C455.19457224 707.79864335 446.46755322 707.80864646 437.74041268 707.82303824 C422.15173818 707.8479531 406.56312446 707.84986617 390.97443585 707.84176413 C377.33181048 707.8346883 363.68920868 707.83463687 350.04658318 707.84162712 C348.21579294 707.84253846 346.3850027 707.84344922 344.55421246 707.84435941 C341.79530356 707.84574256 339.03639466 707.84713365 336.27748577 707.84854554 C310.63229493 707.86152387 284.98711197 707.86664363 259.3419199 707.85501194 C258.37546646 707.85457397 257.40901302 707.854136 256.41327311 707.85368476 C248.5652393 707.85007801 240.7172056 707.8462432 232.8691719 707.84239383 C202.25469766 707.82754553 171.64031263 707.83632772 141.02584839 707.86434937 C106.62049147 707.89578071 72.21518737 707.91074631 37.80981582 707.90054935 C34.14103728 707.89951259 30.47225872 707.89852536 26.80348015 707.89756584 C25.90015109 707.89731696 24.99682203 707.89706807 24.06611936 707.89681164 C10.43378106 707.89337249 -3.19851058 707.90267418 -16.83083916 707.91833687 C-32.33450887 707.93610877 -47.83806507 707.93623292 -63.34172993 707.91298521 C-72.01522024 707.90048963 -80.68844969 707.90172282 -89.36192466 707.92286608 C-95.15960991 707.93560808 -100.95709465 707.93008638 -106.75475816 707.90988127 C-110.05542157 707.89888352 -113.35547288 707.89837264 -116.65612989 707.91455657 C-135.48787585 708.00022474 -148.90321229 706.93627313 -163.07156372 693.42758179 C-173.12284443 682.88020783 -175.44465017 670.25931331 -175.40930176 656.25511169 C-175.41383287 654.93987139 -175.41836398 653.62463108 -175.4230324 652.26953501 C-175.43523899 648.6294632 -175.43500472 644.98948346 -175.43264365 641.34939587 C-175.4322349 637.41952615 -175.44328004 633.48968572 -175.45275879 629.55982971 C-175.46935593 621.86514287 -175.47486772 614.17048667 -175.47598355 606.47578342 C-175.47693445 600.22124678 -175.48104683 593.96672025 -175.4873848 587.71218681 C-175.5049922 569.97537989 -175.51422423 552.23859714 -175.51272385 534.50178141 C-175.51264394 533.54602845 -175.51256402 532.59027548 -175.51248169 531.6055603 C-175.51239993 530.64863934 -175.51231817 529.69171838 -175.51223393 528.70579981 C-175.51142074 513.19194417 -175.53056797 497.67818554 -175.55875842 482.16435797 C-175.58748277 466.23091596 -175.60129903 450.29752128 -175.59957087 434.36405271 C-175.59890691 425.42012555 -175.60440223 416.47630015 -175.62592697 407.53239632 C-175.64413266 399.91894282 -175.64849102 392.30563724 -175.63490812 384.6921714 C-175.62837589 380.80859207 -175.62827035 376.9252966 -175.64561462 373.04174423 C-175.66423177 368.82985542 -175.65179798 364.6186245 -175.63635254 360.40672302 C-175.65178323 358.56951135 -175.65178323 358.56951135 -175.66752565 356.69518429 C-175.59991411 348.36454933 -174.31915771 341.89971211 -168.15261841 335.80819702 C-167.59814026 335.2507933 -167.04366211 334.69338959 -166.47238159 334.11909485 C-165.58948456 333.26245995 -165.58948456 333.26245995 -164.68875122 332.38851929 C-164.0696991 331.77275528 -163.45064697 331.15699127 -162.81283569 330.52256775 C-160.84840884 328.57375782 -158.87026471 326.63954865 -156.89187622 324.70492554 C-155.57980999 323.40436866 -154.26860442 322.1029429 -152.95828247 320.80062866 C-151.68170472 319.53748425 -150.40438458 318.27508961 -149.12625122 317.01351929 C-148.25549957 316.15384804 -148.25549957 316.15384804 -147.36715698 315.27680969 C-144.46726523 312.44255303 -141.52066711 309.71198458 -138.43826294 307.07699585 C-133.3923027 302.70102968 -128.72808502 297.94994008 -124.03443527 293.20458412 C-122.37993114 291.53244712 -120.72170089 289.86408577 -119.06243896 288.19667053 C-114.35116002 283.46113995 -109.64570984 278.71984845 -104.9446106 273.97421265 C-102.05433337 271.05707354 -99.15913731 268.14489066 -96.26091385 265.2356472 C-95.16425332 264.13280905 -94.06948976 263.02808098 -92.97672653 261.921381 C-91.44832036 260.3736366 -89.9137386 258.83226462 -88.37771606 257.29208374 C-87.07488174 255.97806328 -87.07488174 255.97806328 -85.74572754 254.63749695 C-79.3194983 248.78822971 -74.66851739 247.57086472 -66.14187622 247.26742554 C-66.14556339 246.24866239 -66.14925056 245.22989923 -66.15304947 244.18026447 C-66.2419663 219.35711071 -66.30763547 194.53397767 -66.34912491 169.71069813 C-66.36972373 157.70619346 -66.3977931 145.70179419 -66.44363403 133.69735718 C-66.48358383 123.23062638 -66.5093285 112.76397193 -66.5182302 102.297167 C-66.52343114 96.75838209 -66.53559937 91.21981556 -66.56479645 85.68110085 C-66.59209422 80.46002451 -66.6002923 75.23925502 -66.59430695 70.01811409 C-66.59540078 68.10945209 -66.60326856 66.20077905 -66.61869812 64.29217911 C-66.75489477 46.5644711 -63.74075091 31.80562839 -51.30593872 18.27523804 C-36.47640137 4.5164254 -19.82175888 -0.04588812 0 0 Z " fill="#EFC189" transform="translate(323.1418762207031,162.73257446289063)"/>
<path d="M0 0 C1.54275808 -0.00489531 3.08551249 -0.01108806 4.62826073 -0.01845789 C8.84674413 -0.03479925 13.06503992 -0.03255138 17.28354383 -0.02708292 C21.84126382 -0.02440557 26.39893461 -0.03895767 30.95663452 -0.05117798 C39.87749366 -0.07220382 48.79828777 -0.07677449 57.71916877 -0.07499009 C64.97188677 -0.07368113 72.22458454 -0.07749346 79.47729874 -0.08491516 C81.56849388 -0.08701441 83.65968903 -0.08911201 85.75088418 -0.09120798 C86.79181006 -0.09225151 87.83273594 -0.09329504 88.90520503 -0.09437019 C108.57936747 -0.11326079 128.25349261 -0.11222586 147.92766036 -0.10540086 C165.91531952 -0.09982523 183.90283627 -0.12065382 201.89046215 -0.15376133 C220.37333176 -0.18751559 238.85613319 -0.20266456 257.3390342 -0.1980443 C267.71052041 -0.19580151 278.08187497 -0.20101516 288.45333481 -0.22593689 C297.28240014 -0.24697231 306.11126161 -0.25051964 314.94033538 -0.2316373 C319.44217041 -0.22249364 323.94362555 -0.22129434 328.44543076 -0.24199295 C332.57234125 -0.26075755 336.69856217 -0.2561387 340.82544686 -0.23344713 C342.31256666 -0.22927518 343.79973991 -0.23341389 345.28680311 -0.24704307 C357.25874212 -0.34923262 367.96655529 1.78639448 376.92581177 10.29675293 C382.35146038 16.78578033 385.80643476 23.93216558 385.80276585 32.4000206 C385.80475689 33.41468611 385.80674794 34.42935163 385.80879933 35.47476459 C385.80588648 36.58759728 385.80297364 37.70042997 385.79997253 38.84698486 C385.80125417 40.62233136 385.80125417 40.62233136 385.8025617 42.43354344 C385.80392537 45.71958305 385.80079496 49.00556327 385.79578364 52.2915957 C385.79146928 55.83484411 385.79292627 59.37809065 385.79368591 62.92134094 C385.79421052 69.06054876 385.7910703 75.19974596 385.78544807 81.33895111 C385.77732455 90.2152347 385.77471698 99.09151315 385.77346008 107.96780005 C385.77127091 122.36863231 385.76461445 136.7694589 385.75515747 151.17028809 C385.74597988 165.16019665 385.73890074 179.15010368 385.73464966 193.14001465 C385.73425557 194.43330089 385.73425557 194.43330089 385.73385353 195.75271413 C385.7325485 200.07802817 385.73128479 204.40334223 385.73004162 208.72865629 C385.71967319 244.61724459 385.70205852 280.50582644 385.67971802 316.39440918 C384.4472937 316.40320854 384.4472937 316.40320854 383.18997192 316.41218567 C375.42213828 316.47024719 367.65462047 316.54240019 359.8870697 316.63012409 C355.8943079 316.67472679 351.90164577 316.71400464 347.90872192 316.74084473 C344.05058289 316.76697921 340.19282946 316.80745187 336.33493042 316.85759544 C334.86789775 316.87419596 333.40079849 316.88575248 331.9336853 316.89202309 C320.97279405 316.94358315 311.53869285 317.64428818 303.26443481 325.78723145 C298.94264318 330.59578025 296.28011216 335.72259309 293.61721802 341.58190918 C293.18385132 342.51083984 292.75048462 343.43977051 292.3039856 344.39685059 C290.02942709 349.30756626 287.87910538 354.2460575 285.86721802 359.26940918 C282.96715715 366.3877404 279.65442035 371.62806992 272.67971802 375.39440918 C267.89341029 376.99324964 263.73987824 377.64759223 258.70365906 377.66183472 C257.70472583 377.66863139 257.70472583 377.66863139 256.68561214 377.67556536 C254.47337007 377.68813823 252.26137643 377.68659368 250.04910278 377.68493652 C248.45515632 377.69092612 246.86121274 377.69773266 245.26727295 377.70529175 C240.95115665 377.72291225 236.63511972 377.72764538 232.31897092 377.72892332 C229.6197784 377.73034739 226.92060591 377.73462177 224.22141838 377.73991776 C214.79759317 377.75840293 205.37382443 377.76659001 195.94998169 377.76501465 C187.1765571 377.76381273 178.4033783 377.78492876 169.63001591 377.81650198 C162.08670065 377.84267771 154.54346564 377.85338144 147.00010532 377.85210383 C142.49949453 377.8515947 137.99910246 377.85725098 133.49853706 377.87845993 C129.2655412 377.897865 125.03297226 377.89795147 120.79996109 377.88342667 C119.25041643 377.88134047 117.70084488 377.88602819 116.15134621 377.89814758 C106.3936946 377.96949888 98.94164266 377.693824 91.58596802 370.57409668 C87.18866887 364.99725174 84.83255572 358.0452325 82.17971802 351.51940918 C74.37169681 331.80380688 74.37169681 331.80380688 58.07281494 319.26055908 C52.82816218 317.23642348 48.2192976 316.81629163 42.64016724 316.84851074 C41.69261063 316.83817307 40.74505402 316.82783539 39.76878357 316.81718445 C36.67381308 316.78796664 33.57950252 316.78626173 30.48440552 316.78503418 C28.32392139 316.77003835 26.16344867 316.75330827 24.00299072 316.73492432 C18.34450732 316.6913964 12.68617853 316.67128395 7.02755737 316.65618896 C1.24224765 316.63656534 -4.54289638 316.59460127 -10.32809448 316.55456543 C-21.65877236 316.47942101 -32.98941286 316.42903412 -44.32028198 316.39440918 C-44.41187366 279.74775852 -44.48233906 243.10112795 -44.5245433 206.45438636 C-44.52954602 202.12612555 -44.53472332 197.79786497 -44.54000854 193.46960449 C-44.54105779 192.60793993 -44.54210703 191.74627536 -44.54318807 190.85849975 C-44.5605847 176.91368949 -44.5921183 162.96894531 -44.62889317 149.02417423 C-44.66632323 134.711393 -44.6885222 120.39864634 -44.69663596 106.08581817 C-44.70211945 97.25679449 -44.71942725 88.42795761 -44.75194785 79.59899144 C-44.77312125 73.54142472 -44.77947565 67.48395431 -44.77428749 61.42635329 C-44.77173008 57.93342678 -44.77560011 54.44082627 -44.79710388 50.94795799 C-44.81703968 47.15455039 -44.81220683 43.36193844 -44.80130005 39.56851196 C-44.81295141 38.47315632 -44.82460278 37.37780068 -44.83660722 36.24925244 C-44.75637461 25.90699485 -41.58821245 16.92133049 -34.32028198 9.39440918 C-24.04772517 0.69921234 -13.02271616 -0.05137862 0 0 Z " fill="#FEFEFE" transform="translate(323.3202819824219,185.6055908203125)"/>
<path d="M0 0 C1.53562991 -0.00374059 3.07125791 -0.00834374 4.60688293 -0.01373065 C8.81039862 -0.02592569 13.01383451 -0.02570431 17.21736383 -0.02334189 C21.75742465 -0.02293284 26.29746019 -0.03398142 30.83750916 -0.04345703 C39.72674875 -0.06004931 48.61596181 -0.06556579 57.5052156 -0.06668179 C64.73409079 -0.06763319 71.96295725 -0.07174812 79.19182968 -0.07808304 C99.70357393 -0.09569136 120.21529727 -0.10492266 140.72704913 -0.10342209 C142.38472893 -0.10330222 142.38472893 -0.10330222 144.07589722 -0.10317993 C145.73560993 -0.10305729 145.73560993 -0.10305729 147.42885219 -0.10293217 C165.3530938 -0.1021196 183.27725131 -0.121251 201.2014686 -0.14945666 C219.62216409 -0.17821396 238.0428186 -0.19199536 256.4635371 -0.19026911 C266.79878789 -0.18960615 277.13395054 -0.19505727 287.46918106 -0.21662521 C296.27034449 -0.23487456 305.07137982 -0.23915364 313.87255402 -0.22560637 C318.35850481 -0.21909537 322.84421012 -0.21889154 327.33013725 -0.23631287 C331.44605313 -0.25213204 335.5615307 -0.24909072 339.67743646 -0.2317446 C341.15723811 -0.22869401 342.6370732 -0.2322329 344.11683537 -0.24346475 C362.18346194 -0.37138679 377.84809101 4.03109315 391.10812378 16.82992554 C403.87870547 29.78812798 409.03508709 45.20455807 408.97164917 63.13803101 C408.9717952 64.2215535 408.97194122 65.30507599 408.97209167 66.4214325 C408.97139662 69.99251324 408.96362325 73.56354143 408.95578003 77.13461304 C408.9539144 79.61468477 408.95249118 82.09475687 408.95149231 84.5748291 C408.94767852 91.09482851 408.93785792 97.61480556 408.92678833 104.13479614 C408.91600783 110.79098082 408.91198945 117.44717201 408.9069519 124.10336304 C408.89623465 137.15806006 408.87936474 150.21274161 408.85812378 163.26742554 C410.29478394 163.24385986 410.29478394 163.24385986 411.76046753 163.21981812 C415.34615523 163.16512841 418.93180678 163.13093506 422.51779175 163.10263062 C424.06375345 163.08763224 425.60967325 163.06722667 427.15548706 163.04110718 C438.83328395 162.84886456 447.35829673 163.49493787 456.74874878 171.18539429 C463.08363485 177.43816146 467.54312739 186.48587672 468.02960205 195.41479492 C467.98610091 199.10729303 467.85361988 202.78875601 467.70187378 206.47836304 C467.63775649 209.2789235 467.59517606 212.07979134 467.54953003 214.88070679 C467.47257629 219.25204021 467.36901818 223.61739789 467.162323 227.98471069 C465.94779416 246.1454954 465.94779416 246.1454954 472.94406128 262.2605896 C476.82723768 266.39859287 481.06609069 269.93699761 485.56015015 273.38870239 C488.42576351 275.73150306 490.69624323 278.34916756 493.06430054 281.18035889 C496.56427573 285.25248893 500.45091063 288.96044225 504.26437378 292.73617554 C505.14790527 293.61592041 506.03143677 294.49566528 506.94174194 295.40206909 C509.74477511 298.1929706 512.55092294 300.98071785 515.35812378 303.76742554 C519.05912928 307.44141292 522.756442 311.11908156 526.45187378 314.79867554 C527.29061035 315.62911377 528.12934692 316.459552 528.99349976 317.31515503 C533.31610345 321.61985974 537.48142114 325.99419052 541.4515686 330.62715149 C542.5950322 331.96061761 543.77603247 333.26182661 544.96749878 334.55258179 C545.50890503 335.13910522 546.05031128 335.72562866 546.60812378 336.32992554 C547.15984253 336.9190271 547.71156128 337.50812866 548.27999878 338.11508179 C553.43529424 345.1461902 553.28557798 351.72533685 553.23907471 360.18362427 C553.24609466 362.14105903 553.24609466 362.14105903 553.25325644 364.13803792 C553.26575742 367.74956853 553.2596002 371.36086072 553.25029778 374.97239208 C553.24350363 378.87164598 553.25399052 382.77085919 553.26223755 386.67010498 C553.27557467 394.30566347 553.2726968 401.94113346 553.26399963 409.57669541 C553.25722143 415.78496588 553.25630696 421.99321157 553.25957108 428.20148468 C553.26003077 429.0854759 553.26049047 429.96946711 553.2609641 430.88024594 C553.2619233 432.67617216 553.26289594 434.47209838 553.26388188 436.26802459 C553.27243623 453.1084536 553.26260197 469.94883361 553.24648078 486.78925458 C553.23308686 501.2273153 553.23539796 515.66530363 553.24923706 530.10336304 C553.26530812 546.87778707 553.27160246 563.65216813 553.26240027 580.42659879 C553.26144465 582.2171003 553.26050154 584.00760181 553.25957108 585.79810333 C553.25910825 586.67900587 553.25864542 587.55990841 553.25816857 588.46750496 C553.25558257 594.66356598 553.25994147 600.85959965 553.26700974 607.05565643 C553.27544231 614.61375096 553.27310814 622.17175207 553.2571675 629.72983596 C553.24930693 633.58335665 553.24615504 637.43672185 553.25611496 641.29024124 C553.26676625 645.47472572 553.25401008 649.65882087 553.23907471 653.84329224 C553.24911295 655.65572328 553.24911295 655.65572328 553.259354 657.50476909 C553.1596972 671.92826833 549.03134272 684.63596073 539.01437378 695.23226929 C529.17276531 704.52117873 517.52297622 707.89278455 504.18848515 707.77358341 C503.072649 707.77969677 501.95681286 707.78581013 500.80716351 707.79210874 C497.08329624 707.80765867 493.36008488 707.79486217 489.63621521 707.78208923 C486.93335973 707.78741653 484.23054964 707.79432085 481.52770752 707.80313629 C475.65900173 707.81908165 469.79043941 707.82023382 463.9217205 707.8115387 C455.19457224 707.79864335 446.46755322 707.80864646 437.74041268 707.82303824 C422.15173818 707.8479531 406.56312446 707.84986617 390.97443585 707.84176413 C377.33181048 707.8346883 363.68920868 707.83463687 350.04658318 707.84162712 C348.21579294 707.84253846 346.3850027 707.84344922 344.55421246 707.84435941 C341.79530356 707.84574256 339.03639466 707.84713365 336.27748577 707.84854554 C310.63229493 707.86152387 284.98711197 707.86664363 259.3419199 707.85501194 C258.37546646 707.85457397 257.40901302 707.854136 256.41327311 707.85368476 C248.5652393 707.85007801 240.7172056 707.8462432 232.8691719 707.84239383 C202.25469766 707.82754553 171.64031263 707.83632772 141.02584839 707.86434937 C106.62049147 707.89578071 72.21518737 707.91074631 37.80981582 707.90054935 C34.14103728 707.89951259 30.47225872 707.89852536 26.80348015 707.89756584 C25.90015109 707.89731696 24.99682203 707.89706807 24.06611936 707.89681164 C10.43378106 707.89337249 -3.19851058 707.90267418 -16.83083916 707.91833687 C-32.33450887 707.93610877 -47.83806507 707.93623292 -63.34172993 707.91298521 C-72.01522024 707.90048963 -80.68844969 707.90172282 -89.36192466 707.92286608 C-95.15960991 707.93560808 -100.95709465 707.93008638 -106.75475816 707.90988127 C-110.05542157 707.89888352 -113.35547288 707.89837264 -116.65612989 707.91455657 C-135.48787585 708.00022474 -148.90321229 706.93627313 -163.07156372 693.42758179 C-173.12284443 682.88020783 -175.44465017 670.25931331 -175.40930176 656.25511169 C-175.41383287 654.93987139 -175.41836398 653.62463108 -175.4230324 652.26953501 C-175.43523899 648.6294632 -175.43500472 644.98948346 -175.43264365 641.34939587 C-175.4322349 637.41952615 -175.44328004 633.48968572 -175.45275879 629.55982971 C-175.46935593 621.86514287 -175.47486772 614.17048667 -175.47598355 606.47578342 C-175.47693445 600.22124678 -175.48104683 593.96672025 -175.4873848 587.71218681 C-175.5049922 569.97537989 -175.51422423 552.23859714 -175.51272385 534.50178141 C-175.51264394 533.54602845 -175.51256402 532.59027548 -175.51248169 531.6055603 C-175.51239993 530.64863934 -175.51231817 529.69171838 -175.51223393 528.70579981 C-175.51142074 513.19194417 -175.53056797 497.67818554 -175.55875842 482.16435797 C-175.58748277 466.23091596 -175.60129903 450.29752128 -175.59957087 434.36405271 C-175.59890691 425.42012555 -175.60440223 416.47630015 -175.62592697 407.53239632 C-175.64413266 399.91894282 -175.64849102 392.30563724 -175.63490812 384.6921714 C-175.62837589 380.80859207 -175.62827035 376.9252966 -175.64561462 373.04174423 C-175.66423177 368.82985542 -175.65179798 364.6186245 -175.63635254 360.40672302 C-175.65178323 358.56951135 -175.65178323 358.56951135 -175.66752565 356.69518429 C-175.59991411 348.36454933 -174.31915771 341.89971211 -168.15261841 335.80819702 C-167.59814026 335.2507933 -167.04366211 334.69338959 -166.47238159 334.11909485 C-165.58948456 333.26245995 -165.58948456 333.26245995 -164.68875122 332.38851929 C-164.0696991 331.77275528 -163.45064697 331.15699127 -162.81283569 330.52256775 C-160.84840884 328.57375782 -158.87026471 326.63954865 -156.89187622 324.70492554 C-155.57980999 323.40436866 -154.26860442 322.1029429 -152.95828247 320.80062866 C-151.68170472 319.53748425 -150.40438458 318.27508961 -149.12625122 317.01351929 C-148.25549957 316.15384804 -148.25549957 316.15384804 -147.36715698 315.27680969 C-144.46726523 312.44255303 -141.52066711 309.71198458 -138.43826294 307.07699585 C-133.3923027 302.70102968 -128.72808502 297.94994008 -124.03443527 293.20458412 C-122.37993114 291.53244712 -120.72170089 289.86408577 -119.06243896 288.19667053 C-114.35116002 283.46113995 -109.64570984 278.71984845 -104.9446106 273.97421265 C-102.05433337 271.05707354 -99.15913731 268.14489066 -96.26091385 265.2356472 C-95.16425332 264.13280905 -94.06948976 263.02808098 -92.97672653 261.921381 C-91.44832036 260.3736366 -89.9137386 258.83226462 -88.37771606 257.29208374 C-87.07488174 255.97806328 -87.07488174 255.97806328 -85.74572754 254.63749695 C-79.3194983 248.78822971 -74.66851739 247.57086472 -66.14187622 247.26742554 C-66.14556339 246.24866239 -66.14925056 245.22989923 -66.15304947 244.18026447 C-66.2419663 219.35711071 -66.30763547 194.53397767 -66.34912491 169.71069813 C-66.36972373 157.70619346 -66.3977931 145.70179419 -66.44363403 133.69735718 C-66.48358383 123.23062638 -66.5093285 112.76397193 -66.5182302 102.297167 C-66.52343114 96.75838209 -66.53559937 91.21981556 -66.56479645 85.68110085 C-66.59209422 80.46002451 -66.6002923 75.23925502 -66.59430695 70.01811409 C-66.59540078 68.10945209 -66.60326856 66.20077905 -66.61869812 64.29217911 C-66.75489477 46.5644711 -63.74075091 31.80562839 -51.30593872 18.27523804 C-36.47640137 4.5164254 -19.82175888 -0.04588812 0 0 Z M-36.14187622 34.26742554 C-42.76553077 43.25565354 -44.44017057 50.98003813 -44.38238525 61.96051025 C-44.3840941 63.14578344 -44.38580295 64.33105662 -44.38756359 65.55224717 C-44.39028494 68.83380499 -44.38404702 72.11520422 -44.37400746 75.3967433 C-44.36536109 78.93859311 -44.36829396 82.48043569 -44.36981201 86.02229309 C-44.37086011 92.15602235 -44.36459134 98.28970903 -44.35333633 104.42342758 C-44.33707415 113.29172099 -44.33187259 122.15999383 -44.32936035 131.02830054 C-44.32498438 145.41693981 -44.31167792 159.80555639 -44.29275513 174.19418335 C-44.2743938 188.17041917 -44.26023853 202.14664883 -44.2517395 216.12289429 C-44.25121405 216.98455967 -44.25068861 217.84622505 -44.25014724 218.7340015 C-44.24753714 223.05677425 -44.24500973 227.37954704 -44.24252343 231.70231986 C-44.22179397 267.55737111 -44.18657109 303.41239655 -44.14187622 339.26742554 C-42.94885895 339.27107117 -41.75584167 339.2747168 -40.52667236 339.2784729 C-29.25705857 339.31549161 -17.98771628 339.37333956 -6.7183094 339.45132828 C-0.9252424 339.49075598 4.86767366 339.52296768 10.66085815 339.53842163 C16.25667112 339.553619 21.85206898 339.58811976 27.44769669 339.63573456 C29.57736722 339.65051651 31.70709703 339.65846471 33.8368187 339.65930939 C36.83118152 339.66169036 39.82440763 339.68886128 42.818573 339.7215271 C43.68964188 339.71649673 44.56071075 339.71146637 45.45817566 339.70628357 C54.80028979 339.86289521 62.95085271 343.18393828 69.70968628 349.64633179 C75.44163363 356.63930756 78.69089106 365.40683732 82.11203003 373.69320679 C82.49681519 374.61786743 82.88160034 375.54252808 83.27804565 376.49520874 C84.01894666 378.29284355 84.74395261 380.09714438 85.44992065 381.90878296 C88.36603367 389.06795026 91.93306204 395.32289517 99.05121803 398.84932899 C102.69984605 400.36212922 105.85659411 400.6445827 109.82745361 400.64837646 C110.49270353 400.65305644 111.15795345 400.65773641 111.84336245 400.6625582 C114.05340629 400.67444208 116.26282238 400.66507744 118.47286987 400.65560913 C120.06519429 400.65967787 121.65751588 400.66502145 123.24983215 400.67153931 C127.56193865 400.68518503 131.87382917 400.67992504 136.18593931 400.67040205 C140.70742072 400.66278857 145.22888405 400.66985599 149.75036621 400.67456055 C157.34458727 400.6800143 164.93872072 400.67283763 172.53292847 400.65853882 C181.29834951 400.64222479 190.06356105 400.64749326 198.82897699 400.66401803 C206.36721882 400.67765779 213.90539779 400.67954006 221.44364798 400.67170203 C225.9403251 400.66703766 230.43690396 400.66636627 234.93357468 400.67631149 C239.16407319 400.68501475 243.39430332 400.67889827 247.62477303 400.66162872 C249.1722742 400.65768124 250.71979819 400.65876795 252.26729012 400.66541672 C265.80792906 400.86986086 265.80792906 400.86986086 277.60812378 395.01742554 C283.07170921 388.33971001 286.51174876 381.97550496 289.79562378 374.01742554 C300.03517118 349.3575905 300.03517118 349.3575905 312.10812378 342.39242554 C316.69064157 340.51775917 320.49534938 340.12746204 325.46261597 340.06210327 C326.1166893 340.05220367 326.77076263 340.04230408 327.44465637 340.03210449 C329.59806752 340.00061703 331.7515007 339.97578281 333.90499878 339.95101929 C335.4014441 339.93043873 336.89788374 339.90944197 338.39431763 339.88804626 C342.32664387 339.83293936 346.25902158 339.78348007 350.19143677 339.73519897 C354.20668094 339.68490068 358.22185067 339.62925815 362.23703003 339.57406616 C370.11066494 339.46662386 377.98436227 339.36514817 385.85812378 339.26742554 C385.94971546 302.62077487 386.02018085 265.97414431 386.0623851 229.32740272 C386.06738782 224.99914191 386.07256511 220.67088132 386.07785034 216.34262085 C386.07889958 215.48095628 386.07994883 214.61929172 386.08102986 213.73151611 C386.0984265 199.78670585 386.1299601 185.84196167 386.16673496 171.89719059 C386.20416503 157.58440936 386.226364 143.27166269 386.23447776 128.95883453 C386.23996125 120.12981085 386.25726905 111.30097397 386.28978965 102.4720078 C386.31096304 96.41444108 386.31731744 90.35697067 386.31212929 84.29936965 C386.30957188 80.80644313 386.3134419 77.31384263 386.33494568 73.82097435 C386.35488148 70.02756675 386.35004863 66.2349548 386.33914185 62.44152832 C386.35079321 61.34617268 386.36244458 60.25081703 386.37444901 59.1222688 C386.2943483 48.79701298 383.13647313 39.77171035 375.85812378 32.26742554 C365.73050204 23.98118957 356.52478101 22.82357697 343.77835083 22.87974548 C342.23731942 22.87556955 340.69629109 22.87009061 339.15526843 22.86342567 C334.93226043 22.84898594 330.70944784 22.8532112 326.48642921 22.86059248 C321.92731525 22.86532559 317.36824348 22.85281292 312.80914307 22.84257507 C303.88132051 22.82538356 294.95356832 22.82454793 286.0257335 22.82978798 C278.76724759 22.83383086 271.50878246 22.8323847 264.25029755 22.82703972 C262.70014278 22.82591709 262.70014278 22.82591709 261.11867176 22.82477177 C259.0191548 22.82324027 256.91963785 22.82170193 254.8201209 22.82015681 C235.13261141 22.80643006 215.44514165 22.8118703 195.75763306 22.82334202 C177.75693269 22.83327082 159.75633517 22.82034013 141.75565067 22.79640783 C123.26380583 22.77200818 104.77200888 22.76241132 86.28014827 22.76906055 C75.9019476 22.77255133 65.52382599 22.77033022 55.14563751 22.75280952 C46.30922351 22.7380766 37.47294421 22.73746621 28.63653281 22.75488044 C24.13071334 22.7633845 19.62513438 22.76555462 15.11932755 22.75022888 C10.98871769 22.73635368 6.85855374 22.74118107 2.7279695 22.76046812 C1.23944636 22.76421984 -0.24911274 22.76133016 -1.73760375 22.75085647 C-14.70839823 22.66613053 -26.78616158 24.50413521 -36.14187622 34.26742554 Z M-153.14187622 361.26742554 C-153.21054394 399.7316474 -153.26340582 438.19586004 -153.29507221 476.6601308 C-153.29882433 481.20126691 -153.30270729 485.74240289 -153.30667114 490.28353882 C-153.30745807 491.18759661 -153.30824501 492.0916544 -153.30905578 493.02310789 C-153.32210943 507.66117129 -153.34576306 522.29919935 -153.37333461 536.93724179 C-153.40138993 551.95740304 -153.41805275 566.97754578 -153.42414171 581.99773216 C-153.42825788 591.26586913 -153.4412582 600.53390618 -153.46562562 609.80201238 C-153.48148437 616.15763978 -153.48627626 622.51321552 -153.48238035 628.86886126 C-153.48045902 632.53565335 -153.48340285 636.20227086 -153.49949265 639.86903191 C-153.51681972 643.84686493 -153.5108352 647.82447102 -153.50263977 651.80233765 C-153.51137829 652.95799225 -153.52011682 654.11364685 -153.52912015 655.30432129 C-153.47861198 664.36392206 -151.74262478 672.60180476 -145.14187622 679.26742554 C-139.53816782 683.14691597 -134.39562192 685.3906455 -127.55289018 685.39507604 C-126.62907625 685.39809201 -125.70526232 685.40110797 -124.75345403 685.40421534 C-123.74003948 685.40244586 -122.72662492 685.40067639 -121.68250084 685.3988533 C-120.60032227 685.40090594 -119.5181437 685.40295857 -118.40317184 685.4050734 C-114.74586146 685.41076634 -111.08858847 685.40928333 -107.43127441 685.40786743 C-104.79507545 685.41044976 -102.15887954 685.41342358 -99.52268183 685.41687083 C-93.01737779 685.42445725 -86.51208196 685.42664422 -80.00677396 685.42719989 C-72.21699861 685.4281129 -64.42723086 685.43477858 -56.63745878 685.44154671 C-37.80823271 685.45761574 -18.97900744 685.46351103 -0.14977574 685.46829546 C8.75598819 685.47063052 17.66175147 685.47423308 26.5675149 685.47799084 C57.04682306 685.49082719 87.52613086 685.50154627 118.00544167 685.50499344 C119.91919429 685.50521507 121.83294691 685.50543686 123.74669953 685.50565879 C125.66510329 685.50587943 127.58350705 685.50609991 129.50191081 685.50632024 C133.35062893 685.50676279 137.19934706 685.50720991 141.04806519 685.50765991 C142.00232537 685.5077693 142.95658556 685.50787869 143.93976272 685.5079914 C174.88430157 685.51162233 205.82881699 685.52754333 236.77334686 685.55085028 C269.48184215 685.57544081 302.19032406 685.58916592 334.89882886 685.59036136 C338.4887596 685.59053281 342.07869033 685.59074824 345.66862106 685.59099579 C346.55257714 685.59105156 347.43653322 685.59110733 348.34727584 685.59116478 C362.57897734 685.59231592 376.81065483 685.60334323 391.04234823 685.61788284 C405.34485041 685.63224222 419.64732177 685.63548799 433.94982918 685.62744287 C442.44833373 685.62298395 450.94673888 685.62685769 459.44523039 685.64268137 C465.12271524 685.65242498 470.80013037 685.65125904 476.47761457 685.64124514 C479.71212864 685.6358486 482.94641347 685.63681481 486.18091913 685.64775386 C489.66868636 685.65880411 493.1559485 685.65138718 496.64370155 685.63936234 C497.64306911 685.64695753 498.64243667 685.65455272 499.67208809 685.66237807 C508.11607141 685.59943636 516.49798815 684.16558658 523.32296753 678.85726929 C528.68170606 673.30763422 530.98429817 666.60945501 530.98117161 659.04317093 C530.98316266 657.97973788 530.9851537 656.91630482 530.98720509 655.82064652 C530.98429225 654.65334056 530.98137941 653.48603459 530.9783783 652.28335571 C530.97923272 651.04262165 530.98008715 649.80188758 530.98096746 648.52355552 C530.98233141 645.07789492 530.97919994 641.63229093 530.9741894 638.18663716 C530.96987585 634.47160801 530.97133197 630.75658064 530.97209167 627.04154968 C530.97261633 620.60440913 530.96947557 614.1672787 530.96385384 607.73014069 C530.95573101 598.42308987 530.95312281 589.11604395 530.95186584 579.80898997 C530.94967656 564.70935764 530.94301981 549.60973071 530.93356323 534.51010132 C530.92438593 519.84115628 530.91730665 505.17221271 530.91305542 490.50326538 C530.9127927 489.59925661 530.91252997 488.69524785 530.91225929 487.76384488 C530.91095426 483.22875383 530.90969055 478.69366278 530.90844738 474.15857172 C530.89807861 436.52818585 530.88046364 398.89780611 530.85812378 361.26742554 C503.97233466 361.17401812 477.08656982 361.10346388 450.20065117 361.06017685 C437.7172796 361.03954445 425.2340088 361.01141074 412.7507019 360.96566772 C401.87129275 360.9258209 390.99195657 360.89999766 380.11247647 360.89107156 C374.35091248 360.8858532 368.58955728 360.87357379 362.82806015 360.84450531 C357.40591849 360.81737043 351.98407178 360.80897674 346.56186867 360.81499481 C344.57125178 360.81389372 342.58062511 360.8059285 340.59006691 360.79060364 C337.87240563 360.77070599 335.15585837 360.77548555 332.43817139 360.78640747 C331.65022214 360.7747561 330.86227289 360.76310474 330.05044639 360.7511003 C324.88529013 360.80722007 321.95648762 361.85964934 317.85812378 365.26742554 C315.92638982 368.05317583 315.92638982 368.05317583 314.48312378 371.32992554 C314.19622681 371.92845337 313.90932983 372.5269812 313.61373901 373.14364624 C311.55151847 377.52371617 309.73658437 381.99533163 307.92404175 386.48300171 C302.83542442 399.01882907 296.49865933 411.77474877 283.63937378 417.76742554 C276.23343853 420.70311158 269.92782459 422.38842688 261.94621277 422.40786743 C261.26295951 422.41083855 260.57970624 422.41380968 259.87574834 422.41687083 C257.59292411 422.42552215 255.31015254 422.42706305 253.02731323 422.42855835 C251.38764841 422.4331891 249.74798465 422.4382141 248.10832214 422.44360352 C243.6576759 422.45670587 239.20704473 422.46316839 234.75638223 422.46761417 C231.97310132 422.47054875 229.18982449 422.47465431 226.40654564 422.47911835 C217.69057145 422.49278836 208.97460663 422.50245711 200.25862247 422.50632024 C190.21189329 422.51079814 180.16530035 422.5283357 170.11861259 422.55732083 C162.34347009 422.57897038 154.56836583 422.58902629 146.79319352 422.59036136 C142.15391337 422.59140715 137.51476138 422.59726679 132.87551308 422.61518097 C128.50799963 422.63171804 124.14070989 422.63378994 119.77317619 422.62504196 C118.17609684 422.62427456 116.57900518 422.62857485 114.98195648 422.63850021 C101.01835044 422.72014571 89.48809534 420.85181284 78.69796753 411.36898804 C71.43631215 403.84149171 67.58230056 394.36889054 63.56124878 384.87289429 C63.16478149 383.93671265 62.76831421 383.00053101 62.35983276 382.03598022 C61.58132193 380.18264177 60.81221577 378.32531785 60.05368042 376.4637146 C56.64522156 368.13605616 56.64522156 368.13605616 49.74741268 362.66082287 C45.69725297 361.0029685 41.79276477 360.85645886 37.46153259 360.90666199 C36.23362075 360.90281708 36.23362075 360.90281708 34.98090261 360.89889449 C32.25235396 360.89397383 29.52436514 360.91042093 26.79586792 360.92684937 C24.83426934 360.92769601 22.87266981 360.92721977 20.91107178 360.92552185 C15.59545653 360.92466193 10.28004482 360.94228728 4.96447682 360.96324372 C-0.5942028 360.982011 -6.15288721 360.98376101 -11.71159363 360.98731995 C-22.23348934 360.99664024 -32.75529142 361.02125388 -43.27714592 361.05136842 C-55.25772009 361.08491284 -67.23829875 361.10139855 -79.21890819 361.11645472 C-103.85994942 361.1478034 -128.50090757 361.20056367 -153.14187622 361.26742554 Z " fill="#010101" transform="translate(323.1418762207031,162.73257446289063)"/>
<path d="M0 0 C1.6985782 -0.00761181 1.6985782 -0.00761181 3.43147111 -0.0153774 C5.3134308 -0.01612404 5.3134308 -0.01612404 7.23340988 -0.01688576 C8.57142126 -0.02089911 9.90943142 -0.02533712 11.2474401 -0.03016531 C14.93684834 -0.04215084 18.62624349 -0.04778383 22.31566739 -0.05234647 C26.28988968 -0.05829506 30.26409625 -0.06990673 34.23830795 -0.08063698 C43.84232565 -0.10517771 53.44634856 -0.1197904 63.05038798 -0.13269705 C65.76188384 -0.1364077 68.47337919 -0.14038103 71.18487453 -0.14444971 C88.01411874 -0.16968448 104.84336373 -0.19174291 121.67262268 -0.20417786 C125.57217792 -0.20710767 129.47173313 -0.21006932 133.3712883 -0.21308327 C134.34053323 -0.21382932 135.30977817 -0.21457537 136.30839416 -0.21534403 C152.01469498 -0.22800158 167.72088269 -0.26122903 183.42713061 -0.3028851 C199.54346053 -0.34527927 215.6597325 -0.36886996 231.77611804 -0.37409842 C240.82852056 -0.37751536 249.88074631 -0.38930376 258.93309402 -0.42220116 C266.64152442 -0.45016826 274.34974184 -0.46121574 282.05821905 -0.4500057 C285.99221412 -0.44481044 289.92576295 -0.44776132 293.85969353 -0.47247124 C297.46110246 -0.49490397 301.06174309 -0.4942715 304.66316494 -0.47526737 C306.58334441 -0.47112819 308.50352809 -0.49165733 310.42359281 -0.51305425 C319.74495758 -0.42682438 319.74495758 -0.42682438 323.44791412 2.5500145 C326.67091084 6.26051912 326.67091084 6.26051912 326.74970627 9.12529564 C326.69040939 9.89228783 326.63111252 10.65928001 326.57001877 11.44951439 C326.50427658 12.58840111 326.50427658 12.58840111 326.43720627 13.75029564 C325.35245968 17.2386123 323.84065139 19.34496115 320.69501877 21.13701439 C316.377174 21.90596199 312.08892493 21.81084076 307.71320724 21.7719326 C306.36363501 21.77769435 305.01407062 21.78563584 303.66452265 21.79556882 C299.95694441 21.81645882 296.25000892 21.80611775 292.54242826 21.79063773 C288.54370197 21.77933674 284.54508713 21.79678067 280.5463829 21.81053734 C272.71332337 21.83278775 264.88050318 21.82796059 257.04743421 21.81347413 C250.68220578 21.80218896 244.31704449 21.80064786 237.95180893 21.80609322 C237.04638687 21.80685938 236.14096481 21.80762555 235.20810571 21.80841493 C233.36884302 21.81001353 231.52958034 21.8116346 229.69031769 21.81327789 C212.43753438 21.82754067 195.18488383 21.81113438 177.93212229 21.78427605 C163.12369186 21.76193679 148.31545738 21.76581677 133.50703049 21.78886986 C116.31661613 21.81561853 99.12631817 21.82616732 81.93588591 21.81080854 C80.10333349 21.80921577 78.27078106 21.80764392 76.43822861 21.80609322 C75.53654305 21.80532184 74.63485749 21.80455046 73.70584813 21.80375571 C67.34717353 21.7994359 60.98857269 21.80673129 54.62990952 21.81849098 C46.88232485 21.83250418 39.13499352 21.82874103 31.38743794 21.80208726 C27.43332164 21.788933 23.47962792 21.78382367 19.5255146 21.80033302 C15.90696252 21.815213 12.28922541 21.80707809 8.67074746 21.78044526 C6.73907198 21.77219833 4.80734009 21.7885558 2.87572336 21.80573142 C-6.47038654 21.69938969 -6.47038654 21.69938969 -9.55384445 18.722332 C-12.35938183 14.58033391 -12.81150701 12.20227216 -12.30498123 7.13701439 C-9.08528353 1.73080556 -6.12973429 0.01452943 0 0 Z " fill="#F03D38" transform="translate(337.30498123168945,252.8629856109619)"/>
<path d="M0 0 C1.13698426 -0.00644889 2.27396852 -0.01289778 3.44540685 -0.0195421 C5.3196512 -0.01489629 5.3196512 -0.01489629 7.23175907 -0.01015663 C8.57221056 -0.01389257 9.91265986 -0.01849386 11.2531057 -0.02388728 C14.93995166 -0.03613955 18.62670703 -0.03585421 22.31356871 -0.03349853 C26.28842391 -0.03309093 30.26324985 -0.04412398 34.23809147 -0.05361366 C42.02643132 -0.07023628 49.81474091 -0.07572376 57.60309701 -0.07683842 C63.93210186 -0.07778819 70.2610967 -0.08189493 76.59009838 -0.08823967 C94.52583928 -0.10585466 112.46155623 -0.11507801 130.39730584 -0.11357872 C131.36450417 -0.11349881 132.3317025 -0.1134189 133.32820988 -0.11333656 C134.29658612 -0.1132548 135.26496236 -0.11317304 136.26268334 -0.1130888 C151.96305191 -0.11227558 167.66332462 -0.13142164 183.36366545 -0.1596133 C199.4766699 -0.18831817 215.58962756 -0.20215495 231.70265824 -0.20042574 C240.75216854 -0.19976107 249.80157832 -0.20528749 258.85106564 -0.22678185 C266.5547077 -0.24496205 274.25820366 -0.24936702 281.96185785 -0.235763 C285.89364973 -0.22921759 289.82516107 -0.22917246 293.75692654 -0.2464695 C297.35503992 -0.2621362 300.95264883 -0.25940302 304.55074943 -0.24190123 C306.47155096 -0.23735411 308.39236775 -0.25253874 310.31310934 -0.26838052 C312.02249735 -0.25458414 312.02249735 -0.25458414 313.76641846 -0.24050903 C314.74962442 -0.24094377 315.73283039 -0.24137851 316.74583048 -0.24182642 C320.83585076 0.51413051 323.34523205 2.80608551 325.8211298 6.06976891 C326.79452049 9.47663634 326.34273081 11.85018505 325.4461298 15.25726891 C323.25621383 17.84024672 321.47781292 19.74142735 318.4461298 21.25726891 C316.68517984 21.35594921 314.92047367 21.39008979 313.15676594 21.39428329 C312.02786387 21.39935784 310.8989618 21.40443238 309.73585057 21.4096607 C308.48510173 21.41015845 307.23435288 21.41065621 305.94570255 21.41116905 C304.61181597 21.41518241 303.27793061 21.41962042 301.94404674 21.42444861 C298.26604007 21.43643405 294.58804654 21.44206711 290.91002417 21.44662976 C286.94807191 21.45257839 282.98613541 21.46419005 279.02419376 21.47492027 C269.44983894 21.49946094 259.87547889 21.51407369 250.30110228 21.52698034 C247.59797547 21.530691 244.89484917 21.53466433 242.19172287 21.53873301 C225.41437955 21.56396779 208.63703543 21.58602619 191.85967731 21.59846115 C187.97215363 21.60139097 184.08462998 21.60435261 180.19710636 21.60736656 C179.23085204 21.60811261 178.26459772 21.60885866 177.26906297 21.60962732 C161.61126093 21.62228485 145.95357235 21.65551226 130.29582337 21.69716839 C114.22921399 21.73956274 98.16266274 21.76315328 82.09599757 21.76838171 C73.07154049 21.77179864 64.04726073 21.78358681 55.02285862 21.81648445 C47.33821662 21.8444518 39.65378826 21.85549893 31.96909931 21.84428899 C28.04725531 21.8390938 24.12585893 21.84204421 20.20407963 21.86675453 C16.61377245 21.88918777 13.02423596 21.88855441 9.43391582 21.86955066 C7.51970113 21.86541162 5.60548222 21.88594027 3.69138265 21.90733755 C-5.60157512 21.82110762 -5.60157512 21.82110762 -9.30439281 18.8442688 C-12.78701724 14.8390945 -12.91320333 12.55743263 -12.5538702 7.25726891 C-9.85113441 1.17611338 -6.39811898 0.00916947 0 0 Z " fill="#D2D3D2" transform="translate(337.55387020111084,383.74273109436035)"/>
<path d="M0 0 C1.13300216 -0.00445784 2.26600433 -0.00891569 3.43333989 -0.01350862 C5.31632277 -0.01323207 5.31632277 -0.01323207 7.2373457 -0.01294994 C8.57606955 -0.01624776 9.91479241 -0.01997316 11.25351399 -0.02409142 C14.94485522 -0.03412876 18.63618018 -0.03783099 22.32753313 -0.04048073 C26.30377959 -0.04437862 30.28001311 -0.05395726 34.25625134 -0.0626936 C43.86471665 -0.08247196 53.47318305 -0.09252566 63.08166364 -0.10142139 C67.60325631 -0.10580179 72.12484781 -0.11116921 76.64643955 -0.11641026 C91.67150441 -0.13342342 106.69656853 -0.14791869 121.72164154 -0.155159 C125.62223658 -0.15706898 129.52283161 -0.1589893 133.42342663 -0.16094494 C134.8776875 -0.16167055 134.8776875 -0.16167055 136.36132737 -0.16241082 C152.07475136 -0.17071518 167.78809932 -0.19605855 183.50149009 -0.22852562 C199.62346601 -0.26156615 215.74540326 -0.27960501 231.86741322 -0.28280324 C240.92366701 -0.28497106 249.97980991 -0.29375943 259.03603077 -0.31926441 C266.74703316 -0.34093035 274.45789774 -0.34904213 282.16892711 -0.33929763 C286.10476107 -0.33474103 290.04031044 -0.33671758 293.97610569 -0.35605907 C297.5779904 -0.37360716 301.17938118 -0.37276185 304.78127053 -0.35716178 C306.70416271 -0.35363966 308.62705959 -0.36987422 310.5498808 -0.38676625 C312.26111891 -0.37389492 312.26111891 -0.37389492 314.00692749 -0.36076355 C314.9912176 -0.36174036 315.97550771 -0.36271717 316.9896248 -0.36372358 C320.46414573 0.27644467 322.15559274 1.72757701 324.69222546 4.13422108 C326.42854182 7.6068538 326.29412948 11.34615121 325.69222546 15.13422108 C323.510634 17.88991554 321.82045052 19.57010854 318.69222546 21.13422108 C316.9312755 21.23290138 315.16656933 21.26704196 313.4028616 21.27123547 C312.27395952 21.27631001 311.14505745 21.28138455 309.98194623 21.28661287 C308.73119738 21.28711063 307.48044854 21.28760838 306.19179821 21.28812122 C304.85791163 21.29213458 303.52402627 21.2965726 302.19014239 21.30140078 C298.51213573 21.31338622 294.8341422 21.31901928 291.15611982 21.32358193 C287.19416756 21.32953056 283.23223107 21.34114222 279.27028942 21.35187244 C269.6959346 21.37641311 260.12157455 21.39102586 250.54719794 21.40393251 C247.84407112 21.40764317 245.14094483 21.41161651 242.43781853 21.41568518 C225.6604752 21.44091996 208.88313109 21.46297836 192.10577297 21.47541332 C188.21824929 21.47834314 184.33072564 21.48130478 180.44320202 21.48431873 C179.4769477 21.48506478 178.51069338 21.48581083 177.51515862 21.48657949 C161.85735658 21.49923702 146.199668 21.53246443 130.54191902 21.57412057 C114.47530965 21.61651491 98.4087584 21.64010545 82.34209323 21.64533389 C73.31763615 21.64875081 64.29335638 21.66053898 55.26895428 21.69343662 C47.58431228 21.72140397 39.89988392 21.7324511 32.21519497 21.72124116 C28.29335097 21.71604597 24.37195459 21.71899638 20.45017529 21.7437067 C16.85986811 21.76613994 13.27033162 21.76550658 9.68001148 21.74650283 C7.76579679 21.74236379 5.85157788 21.76289244 3.9374783 21.78428972 C-5.35547947 21.69805979 -5.35547947 21.69805979 -9.05829716 18.72122097 C-11.67443987 15.71253951 -12.2270583 14.83376186 -12.68277454 10.88422108 C-12.18850159 5.9414915 -10.76949154 4.59593807 -7.30777454 1.13422108 C-4.72998623 -0.15467308 -2.88792457 0.00525029 0 0 Z " fill="#D2D3D2" transform="translate(337.3077745437622,326.86577892303467)"/>
<path d="M0 0 C1.69335311 -0.00668677 1.69335311 -0.00668677 3.42091537 -0.01350862 C5.29703864 -0.01323207 5.29703864 -0.01323207 7.21106339 -0.01294994 C8.54494975 -0.01624778 9.87883512 -0.01997317 11.2127192 -0.02409142 C14.89072825 -0.03412874 18.56872097 -0.03783099 22.24674177 -0.04048073 C26.20869233 -0.04437867 30.17062989 -0.05395736 34.13257217 -0.0626936 C43.70693053 -0.08247255 53.28128997 -0.09252606 62.85566366 -0.10142139 C67.36168638 -0.10580197 71.86770792 -0.11116938 76.37372971 -0.11641026 C91.3481802 -0.13342402 106.32262995 -0.14791889 121.29708862 -0.155159 C125.18461228 -0.15706897 129.07213594 -0.15898929 132.95965958 -0.16094494 C133.9259139 -0.16142868 134.89216822 -0.16191242 135.88770297 -0.16241082 C151.54548607 -0.17071369 167.20319282 -0.19605428 182.86094257 -0.22852562 C198.92755272 -0.26157387 214.99412404 -0.27960574 231.06076837 -0.28280324 C240.08519615 -0.28497042 249.10951261 -0.29374937 258.13390732 -0.31926441 C265.81853083 -0.34094094 273.50301601 -0.34903691 281.18766662 -0.33929763 C285.10944803 -0.33474402 289.03094383 -0.33670031 292.95268631 -0.35605907 C296.5429044 -0.37362849 300.13262722 -0.37274427 303.72285011 -0.35716178 C305.63705005 -0.35364591 307.5512548 -0.36985845 309.46538329 -0.38676625 C315.79094372 -0.33912526 319.97351682 -0.27656843 324.71063614 4.13422108 C326.4469525 7.6068538 326.31254016 11.34615121 325.71063614 15.13422108 C323.52904469 17.88991554 321.8388612 19.57010854 318.71063614 21.13422108 C316.95391557 21.23114092 315.19348702 21.26340581 313.43409634 21.26564884 C311.74504328 21.27141056 311.74504328 21.27141056 310.02186793 21.27728868 C308.77432791 21.27642219 307.52678789 21.27555571 306.24144363 21.27466297 C304.26569098 21.27911965 304.26569098 21.27911965 302.25002414 21.28366637 C298.58148368 21.29175546 294.91296277 21.293527 291.24441445 21.29426384 C287.29270978 21.29611109 283.34101534 21.30365676 279.38931656 21.31039906 C270.74268222 21.32399649 262.0960525 21.3300093 253.44940925 21.33440971 C248.05320051 21.33716978 242.65699358 21.3414067 237.26078606 21.34591389 C222.32836615 21.35810845 207.39594769 21.36840736 192.46352291 21.37178898 C191.02920734 21.37211833 191.02920734 21.37211833 189.56591569 21.37245433 C188.60738099 21.37267261 187.64884629 21.37289089 186.66126508 21.37311578 C184.7188191 21.37355925 182.77637313 21.37400581 180.83392715 21.37445545 C179.87040114 21.37467688 178.90687512 21.37489831 177.91415135 21.37512645 C162.29774012 21.37907538 146.68137553 21.39653144 131.06498232 21.41981497 C115.04244716 21.44351176 99.01993543 21.45599007 82.99738246 21.4571569 C73.99704215 21.45807461 64.99676259 21.46385098 55.99643898 21.48197651 C48.33302833 21.49735495 40.66969721 21.50251135 33.00627407 21.49423841 C29.09479113 21.49032385 25.18346844 21.49130053 21.27200508 21.50529575 C17.6923945 21.51798671 14.11306539 21.51687984 10.53345547 21.50470504 C8.62250402 21.50180735 6.71154793 21.51372019 4.80063456 21.5261271 C3.66677595 21.51953726 2.53291733 21.51294741 1.36469936 21.50615788 C0.38648478 21.50675496 -0.59172981 21.50735205 -1.59958726 21.50796723 C-5.57703274 20.95529867 -8.20131497 19.14723211 -11.10186386 16.44672108 C-12.85019071 13.04208458 -13.09442213 9.8228517 -12.28936386 6.13422108 C-8.40506688 1.32995902 -6.00952196 0.01096531 0 0 Z " fill="#D2D3D2" transform="translate(337.289363861084,440.86577892303467)"/>
<path d="M0 0 C28.60467694 0 28.60467694 0 33.75738811 4.55277252 C37.95862279 11.02461668 37.67174042 17.41971781 37.56762695 24.94335938 C37.56621458 26.34353586 37.56701216 27.74371604 37.56983948 29.14389038 C37.57126769 32.92461671 37.54197594 36.70454171 37.50696969 40.48508263 C37.47560591 44.4435044 37.47276759 48.40194677 37.46684265 52.36047363 C37.45133349 59.8473189 37.4103451 67.33379691 37.3600952 74.82048082 C37.30411018 83.34765886 37.27669229 91.87485491 37.25161803 100.40217113 C37.19942618 117.93503095 37.10777158 135.46738765 37 153 C24.79 153 12.58 153 0 153 C0 102.51 0 52.02 0 0 Z " fill="#57A5D5" transform="translate(732,348)"/>
<path d="M0 0 C0 22.44 0 44.88 0 68 C-23.43 68 -46.86 68 -71 68 C-67.52350142 63.94408499 -64.23807532 60.11277633 -60.49853516 56.36914062 C-59.66391754 55.53137085 -58.82929993 54.69360107 -57.96939087 53.83044434 C-56.64262833 52.50671814 -56.64262833 52.50671814 -55.2890625 51.15625 C-54.36209564 50.22832642 -53.43512878 49.30040283 -52.48007202 48.34436035 C-50.52674475 46.38956748 -48.57164326 44.43657184 -46.61523438 42.48486328 C-44.12860367 40.00392118 -41.64648041 37.51852579 -39.16568947 35.03174591 C-36.77175941 32.63329754 -34.37398713 30.23870533 -31.9765625 27.84375 C-31.0961026 26.96126587 -30.2156427 26.07878174 -29.3085022 25.16955566 C-24.90016195 20.77773989 -20.43935057 16.52133988 -15.70024109 12.48692322 C-12.5291653 9.71370108 -9.66691514 6.63656478 -6.78320312 3.56835938 C-3.32372573 0 -3.32372573 0 0 0 Z " fill="#B78656" transform="translate(256,434)"/>
<path d="M0 0 C4.70926239 4.03651062 9.21486412 8.05567608 13.58984375 12.421875 C14.47392662 13.30096527 14.47392662 13.30096527 15.37586975 14.19781494 C16.60645284 15.42337924 17.83572544 16.65026072 19.0637207 17.87841797 C20.95180504 19.76428826 22.84778372 21.64198401 24.74414062 23.51953125 C25.94319599 24.71565718 27.14178123 25.91225462 28.33984375 27.109375 C28.90847641 27.67082214 29.47710907 28.23226929 30.06297302 28.81072998 C34 32.77114221 34 32.77114221 34 35 C34.99 35.33 35.98 35.66 37 36 C38.61328125 37.6015625 38.61328125 37.6015625 40.3125 39.625 C40.86550781 40.27726562 41.41851563 40.92953125 41.98828125 41.6015625 C42.65214844 42.39304687 43.31601562 43.18453125 44 44 C45.98 46.31 47.96 48.62 50 51 C33.5 51 17 51 0 51 C0 34.17 0 17.34 0 0 Z " fill="#B78656" transform="translate(791,451)"/>
<path d="M0 0 C0.99 0 1.98 0 3 0 C3 22.44 3 44.88 3 68 C-20.43 68 -43.86 68 -68 68 C-61.25 60.125 -61.25 60.125 -58.47314453 57.35961914 C-57.85295441 56.73950455 -57.23276428 56.11938995 -56.59378052 55.48048401 C-55.94666107 54.83852585 -55.29954163 54.19656769 -54.6328125 53.53515625 C-53.95322479 52.85698349 -53.27363708 52.17881073 -52.57345581 51.48008728 C-50.42632998 49.33850859 -48.27573373 47.20045471 -46.125 45.0625 C-44.65862227 43.60114411 -43.1924742 42.13955774 -41.7265625 40.67773438 C-38.15369 37.11582065 -34.57770316 33.55706135 -31 30 C-30.34 30.33 -29.68 30.66 -29 31 C-40.22 42.22 -51.44 53.44 -63 65 C-41.55 65.33 -20.1 65.66 2 66 C1.67 44.88 1.34 23.76 1 2 C0.01 1.505 0.01 1.505 -1 1 C-0.67 0.67 -0.34 0.34 0 0 Z " fill="#D29963" transform="translate(253,434)"/>
<path d="M0 0 C4.73003732 4.0543177 9.22300104 8.08469551 13.58984375 12.4921875 C14.17923233 13.08299103 14.76862091 13.67379456 15.37586975 14.28250122 C17.23213727 16.14430404 19.08487085 18.00957745 20.9375 19.875 C22.20614672 21.14867011 23.4750249 22.42210971 24.74414062 23.6953125 C27.83210554 26.79422043 30.91690929 29.89624301 34 33 C33.505 33.99 33.505 33.99 33 35 C23.1 25.1 13.2 15.2 3 5 C2.67 19.52 2.34 34.04 2 49 C16.19 48.67 30.38 48.34 45 48 C45.495 47.01 45.495 47.01 46 46 C47.32 47.65 48.64 49.3 50 51 C33.5 51 17 51 0 51 C0 34.17 0 17.34 0 0 Z " fill="#C38E5B" transform="translate(791,451)"/>
</svg>
